<mxfile host="app.diagrams.net" modified="2024-04-11T18:18:48.701Z" agent="Mozilla/5.0 (Windows NT 10.0; Win64; x64) AppleWebKit/537.36 (KHTML, like Gecko) Chrome/123.0.0.0 Safari/537.36" etag="fJzGVshr3bOvkTqXrJji" version="24.2.3" type="github">
  <diagram id="6a731a19-8d31-9384-78a2-239565b7b9f0" name="Page-1">
    <mxGraphModel dx="2074" dy="738" grid="1" gridSize="10" guides="1" tooltips="1" connect="1" arrows="1" fold="1" page="1" pageScale="1" pageWidth="1169" pageHeight="827" background="none" math="0" shadow="0">
      <root>
        <mxCell id="0" />
        <mxCell id="1" parent="0" />
        <mxCell id="2" value="start" style="shape=mxgraph.flowchart.terminator;strokeWidth=2;gradientColor=none;gradientDirection=north;fontStyle=0;html=1;" parent="1" vertex="1">
          <mxGeometry x="260" y="60" width="120" height="30" as="geometry" />
        </mxCell>
        <mxCell id="YoT1rFfWR43B_lwMMgwx-60" style="edgeStyle=orthogonalEdgeStyle;rounded=0;orthogonalLoop=1;jettySize=auto;html=1;" edge="1" parent="1" source="6" target="YoT1rFfWR43B_lwMMgwx-67">
          <mxGeometry relative="1" as="geometry">
            <mxPoint x="510" y="245" as="targetPoint" />
          </mxGeometry>
        </mxCell>
        <mxCell id="6" value="Ter acesso de ADM?&amp;nbsp;" style="shape=mxgraph.flowchart.decision;strokeWidth=2;gradientColor=none;gradientDirection=north;fontStyle=0;html=1;" parent="1" vertex="1">
          <mxGeometry x="247.5" y="170" width="145" height="150" as="geometry" />
        </mxCell>
        <mxCell id="9" style="entryX=0.5;entryY=0;entryPerimeter=0;fontStyle=1;strokeColor=#003366;strokeWidth=1;html=1;exitX=0.5;exitY=1;exitDx=0;exitDy=0;exitPerimeter=0;" parent="1" source="2" target="6" edge="1">
          <mxGeometry relative="1" as="geometry">
            <mxPoint x="320" y="330" as="sourcePoint" />
          </mxGeometry>
        </mxCell>
        <mxCell id="11" value="yes" style="text;fontStyle=0;html=1;strokeColor=none;gradientColor=none;fillColor=none;strokeWidth=2;" parent="1" vertex="1">
          <mxGeometry x="330" y="350" width="40" height="26" as="geometry" />
        </mxCell>
        <mxCell id="16" value="" style="edgeStyle=elbowEdgeStyle;elbow=horizontal;exitX=0.905;exitY=0.5;exitPerimeter=0;fontStyle=1;strokeColor=#003366;strokeWidth=1;html=1;" parent="1" target="15" edge="1">
          <mxGeometry width="100" height="100" as="geometry">
            <mxPoint x="384.395" y="550" as="sourcePoint" />
            <mxPoint x="100" as="targetPoint" />
          </mxGeometry>
        </mxCell>
        <mxCell id="17" value="" style="edgeStyle=elbowEdgeStyle;elbow=horizontal;fontStyle=1;strokeColor=#003366;strokeWidth=1;html=1;" parent="1" target="13" edge="1">
          <mxGeometry width="100" height="100" as="geometry">
            <mxPoint x="320.3333333333335" y="590" as="sourcePoint" />
            <mxPoint x="100" as="targetPoint" />
          </mxGeometry>
        </mxCell>
        <mxCell id="40" value="end" style="shape=mxgraph.flowchart.terminator;strokeWidth=2;gradientColor=none;gradientDirection=north;fontStyle=0;html=1;" parent="1" vertex="1">
          <mxGeometry x="800" y="230" width="120" height="30" as="geometry" />
        </mxCell>
        <mxCell id="45" value="" style="edgeStyle=elbowEdgeStyle;elbow=horizontal;exitX=1;exitY=0.5;exitPerimeter=0;entryX=0.905;entryY=0.5;entryPerimeter=0;fontStyle=1;strokeColor=#003366;strokeWidth=1;html=1;" parent="1" target="34" edge="1">
          <mxGeometry width="100" height="100" as="geometry">
            <mxPoint x="380.50000000000045" y="1119.25" as="sourcePoint" />
            <mxPoint x="100" as="targetPoint" />
            <Array as="points">
              <mxPoint x="950" y="1320" />
            </Array>
          </mxGeometry>
        </mxCell>
        <mxCell id="YoT1rFfWR43B_lwMMgwx-63" value="no" style="text;fontStyle=0;html=1;strokeColor=none;gradientColor=none;fillColor=none;strokeWidth=2;" vertex="1" parent="1">
          <mxGeometry x="565" y="220" width="40" height="26" as="geometry" />
        </mxCell>
        <mxCell id="YoT1rFfWR43B_lwMMgwx-72" style="edgeStyle=orthogonalEdgeStyle;rounded=0;orthogonalLoop=1;jettySize=auto;html=1;entryX=0;entryY=0.5;entryDx=0;entryDy=0;" edge="1" parent="1" source="YoT1rFfWR43B_lwMMgwx-64" target="YoT1rFfWR43B_lwMMgwx-71">
          <mxGeometry relative="1" as="geometry" />
        </mxCell>
        <mxCell id="YoT1rFfWR43B_lwMMgwx-64" value="2 - Mapear tabelas de domínio e transações" style="rounded=1;whiteSpace=wrap;html=1;" vertex="1" parent="1">
          <mxGeometry x="237.5" y="600" width="165" height="79" as="geometry" />
        </mxCell>
        <mxCell id="YoT1rFfWR43B_lwMMgwx-70" style="edgeStyle=orthogonalEdgeStyle;rounded=0;orthogonalLoop=1;jettySize=auto;html=1;" edge="1" parent="1" source="YoT1rFfWR43B_lwMMgwx-67" target="YoT1rFfWR43B_lwMMgwx-64">
          <mxGeometry relative="1" as="geometry" />
        </mxCell>
        <mxCell id="YoT1rFfWR43B_lwMMgwx-67" value="1. Conectar com&amp;nbsp;&lt;div&gt;banco de dados&lt;/div&gt;" style="strokeWidth=2;html=1;shape=mxgraph.flowchart.database;whiteSpace=wrap;" vertex="1" parent="1">
          <mxGeometry x="255" y="405" width="130" height="110" as="geometry" />
        </mxCell>
        <mxCell id="YoT1rFfWR43B_lwMMgwx-77" style="edgeStyle=orthogonalEdgeStyle;rounded=0;orthogonalLoop=1;jettySize=auto;html=1;entryX=0;entryY=0.5;entryDx=0;entryDy=0;" edge="1" parent="1" source="YoT1rFfWR43B_lwMMgwx-71" target="YoT1rFfWR43B_lwMMgwx-76">
          <mxGeometry relative="1" as="geometry" />
        </mxCell>
        <mxCell id="YoT1rFfWR43B_lwMMgwx-71" value="&lt;span style=&quot;color: rgb(34, 34, 34); font-family: Arial, Helvetica, sans-serif; font-size: small; text-align: start; background-color: rgb(255, 255, 255);&quot;&gt;3 - criar a lista de tabelas&lt;/span&gt;" style="rounded=1;whiteSpace=wrap;html=1;" vertex="1" parent="1">
          <mxGeometry x="520" y="600" width="165" height="79" as="geometry" />
        </mxCell>
        <mxCell id="YoT1rFfWR43B_lwMMgwx-73" style="edgeStyle=orthogonalEdgeStyle;rounded=0;orthogonalLoop=1;jettySize=auto;html=1;entryX=0;entryY=0.5;entryDx=0;entryDy=0;entryPerimeter=0;" edge="1" parent="1" source="6" target="40">
          <mxGeometry relative="1" as="geometry" />
        </mxCell>
        <mxCell id="YoT1rFfWR43B_lwMMgwx-82" style="edgeStyle=orthogonalEdgeStyle;rounded=0;orthogonalLoop=1;jettySize=auto;html=1;entryX=0.5;entryY=1;entryDx=0;entryDy=0;entryPerimeter=0;" edge="1" parent="1" source="YoT1rFfWR43B_lwMMgwx-75" target="40">
          <mxGeometry relative="1" as="geometry">
            <mxPoint x="860" y="270" as="targetPoint" />
          </mxGeometry>
        </mxCell>
        <mxCell id="YoT1rFfWR43B_lwMMgwx-75" value="4 - Enviar documentação do trabalho" style="strokeWidth=2;html=1;shape=mxgraph.flowchart.document2;whiteSpace=wrap;size=0.25;" vertex="1" parent="1">
          <mxGeometry x="775" y="405" width="170" height="90" as="geometry" />
        </mxCell>
        <mxCell id="YoT1rFfWR43B_lwMMgwx-78" value="" style="edgeStyle=orthogonalEdgeStyle;rounded=0;orthogonalLoop=1;jettySize=auto;html=1;" edge="1" parent="1" source="YoT1rFfWR43B_lwMMgwx-76" target="YoT1rFfWR43B_lwMMgwx-75">
          <mxGeometry relative="1" as="geometry" />
        </mxCell>
        <mxCell id="YoT1rFfWR43B_lwMMgwx-76" value="&lt;span style=&quot;color: rgb(34, 34, 34); font-family: Arial, Helvetica, sans-serif; font-size: small; text-align: start; background-color: rgb(255, 255, 255);&quot;&gt;4 - Criar Scripts de inserção nas tabelas&lt;/span&gt;" style="rounded=1;whiteSpace=wrap;html=1;" vertex="1" parent="1">
          <mxGeometry x="780" y="600" width="165" height="79" as="geometry" />
        </mxCell>
      </root>
    </mxGraphModel>
  </diagram>
</mxfile>
